<mxfile host="app.diagrams.net" modified="2021-02-09T08:51:36.829Z" agent="5.0 (Windows NT 10.0; Win64; x64) AppleWebKit/537.36 (KHTML, like Gecko) Chrome/88.0.4324.146 Safari/537.36" etag="bROcHsR7irfzjJMH9QDA" version="14.3.0" type="github">
  <diagram name="Page-1" id="9f46799a-70d6-7492-0946-bef42562c5a5">
    <mxGraphModel dx="1422" dy="832" grid="0" gridSize="10" guides="1" tooltips="1" connect="1" arrows="1" fold="1" page="1" pageScale="1" pageWidth="1100" pageHeight="850" background="#ffffff" math="0" shadow="0">
      <root>
        <mxCell id="0" />
        <mxCell id="1" parent="0" />
        <mxCell id="aNF0O6-SXwINJK2UG5cX-1" value="Customers" style="shape=table;html=1;whiteSpace=wrap;startSize=30;container=1;collapsible=0;childLayout=tableLayout;fixedRows=1;rowLines=0;fontStyle=1;align=center;fillColor=#999999;" parent="1" vertex="1">
          <mxGeometry x="167" y="161" width="360" height="199.75" as="geometry" />
        </mxCell>
        <mxCell id="aNF0O6-SXwINJK2UG5cX-2" value="" style="shape=partialRectangle;html=1;whiteSpace=wrap;collapsible=0;dropTarget=0;pointerEvents=0;fillColor=none;top=0;left=0;bottom=1;right=0;points=[[0,0.5],[1,0.5]];portConstraint=eastwest;" parent="aNF0O6-SXwINJK2UG5cX-1" vertex="1">
          <mxGeometry y="30" width="360" height="30" as="geometry" />
        </mxCell>
        <mxCell id="aNF0O6-SXwINJK2UG5cX-3" value="PK" style="shape=partialRectangle;html=1;whiteSpace=wrap;connectable=0;fillColor=none;top=0;left=0;bottom=0;right=0;overflow=hidden;" parent="aNF0O6-SXwINJK2UG5cX-2" vertex="1">
          <mxGeometry width="80" height="30" as="geometry" />
        </mxCell>
        <mxCell id="aNF0O6-SXwINJK2UG5cX-4" value="Customer_ID NOT NULL" style="shape=partialRectangle;html=1;whiteSpace=wrap;connectable=0;fillColor=none;top=0;left=0;bottom=0;right=0;align=left;spacingLeft=6;overflow=hidden;" parent="aNF0O6-SXwINJK2UG5cX-2" vertex="1">
          <mxGeometry x="80" width="280" height="30" as="geometry" />
        </mxCell>
        <mxCell id="aNF0O6-SXwINJK2UG5cX-5" value="" style="shape=partialRectangle;html=1;whiteSpace=wrap;collapsible=0;dropTarget=0;pointerEvents=0;fillColor=none;top=0;left=0;bottom=0;right=0;points=[[0,0.5],[1,0.5]];portConstraint=eastwest;" parent="aNF0O6-SXwINJK2UG5cX-1" vertex="1">
          <mxGeometry y="60" width="360" height="30" as="geometry" />
        </mxCell>
        <mxCell id="aNF0O6-SXwINJK2UG5cX-6" value="" style="shape=partialRectangle;html=1;whiteSpace=wrap;connectable=0;fillColor=none;top=0;left=0;bottom=0;right=0;overflow=hidden;" parent="aNF0O6-SXwINJK2UG5cX-5" vertex="1">
          <mxGeometry width="80" height="30" as="geometry" />
        </mxCell>
        <mxCell id="aNF0O6-SXwINJK2UG5cX-7" value="First_name VARCHAR (40) DEFAULT&amp;nbsp;NULL" style="shape=partialRectangle;html=1;whiteSpace=wrap;connectable=0;fillColor=none;top=0;left=0;bottom=0;right=0;align=left;spacingLeft=6;overflow=hidden;" parent="aNF0O6-SXwINJK2UG5cX-5" vertex="1">
          <mxGeometry x="80" width="280" height="30" as="geometry" />
        </mxCell>
        <mxCell id="aNF0O6-SXwINJK2UG5cX-8" value="" style="shape=partialRectangle;html=1;whiteSpace=wrap;collapsible=0;dropTarget=0;pointerEvents=0;fillColor=none;top=0;left=0;bottom=0;right=0;points=[[0,0.5],[1,0.5]];portConstraint=eastwest;" parent="aNF0O6-SXwINJK2UG5cX-1" vertex="1">
          <mxGeometry y="90" width="360" height="30" as="geometry" />
        </mxCell>
        <mxCell id="aNF0O6-SXwINJK2UG5cX-9" value="" style="shape=partialRectangle;html=1;whiteSpace=wrap;connectable=0;fillColor=none;top=0;left=0;bottom=0;right=0;overflow=hidden;" parent="aNF0O6-SXwINJK2UG5cX-8" vertex="1">
          <mxGeometry width="80" height="30" as="geometry" />
        </mxCell>
        <mxCell id="aNF0O6-SXwINJK2UG5cX-10" value="Surname VARCHAR (40) DEFAULT&amp;nbsp;NULL" style="shape=partialRectangle;html=1;whiteSpace=wrap;connectable=0;fillColor=none;top=0;left=0;bottom=0;right=0;align=left;spacingLeft=6;overflow=hidden;" parent="aNF0O6-SXwINJK2UG5cX-8" vertex="1">
          <mxGeometry x="80" width="280" height="30" as="geometry" />
        </mxCell>
        <mxCell id="aNF0O6-SXwINJK2UG5cX-84" style="shape=partialRectangle;html=1;whiteSpace=wrap;collapsible=0;dropTarget=0;pointerEvents=0;fillColor=none;top=0;left=0;bottom=0;right=0;points=[[0,0.5],[1,0.5]];portConstraint=eastwest;" parent="aNF0O6-SXwINJK2UG5cX-1" vertex="1">
          <mxGeometry y="120" width="360" height="30" as="geometry" />
        </mxCell>
        <mxCell id="aNF0O6-SXwINJK2UG5cX-85" style="shape=partialRectangle;html=1;whiteSpace=wrap;connectable=0;fillColor=none;top=0;left=0;bottom=0;right=0;overflow=hidden;" parent="aNF0O6-SXwINJK2UG5cX-84" vertex="1">
          <mxGeometry width="80" height="30" as="geometry" />
        </mxCell>
        <mxCell id="aNF0O6-SXwINJK2UG5cX-86" value="" style="shape=partialRectangle;html=1;whiteSpace=wrap;connectable=0;fillColor=none;top=0;left=0;bottom=0;right=0;align=left;spacingLeft=6;overflow=hidden;" parent="aNF0O6-SXwINJK2UG5cX-84" vertex="1">
          <mxGeometry x="80" width="280" height="30" as="geometry" />
        </mxCell>
        <mxCell id="aNF0O6-SXwINJK2UG5cX-87" style="shape=partialRectangle;html=1;whiteSpace=wrap;collapsible=0;dropTarget=0;pointerEvents=0;fillColor=none;top=0;left=0;bottom=0;right=0;points=[[0,0.5],[1,0.5]];portConstraint=eastwest;" parent="aNF0O6-SXwINJK2UG5cX-1" vertex="1">
          <mxGeometry y="150" width="360" height="30" as="geometry" />
        </mxCell>
        <mxCell id="aNF0O6-SXwINJK2UG5cX-88" style="shape=partialRectangle;html=1;whiteSpace=wrap;connectable=0;fillColor=none;top=0;left=0;bottom=0;right=0;overflow=hidden;" parent="aNF0O6-SXwINJK2UG5cX-87" vertex="1">
          <mxGeometry width="80" height="30" as="geometry" />
        </mxCell>
        <mxCell id="aNF0O6-SXwINJK2UG5cX-89" value="" style="shape=partialRectangle;html=1;whiteSpace=wrap;connectable=0;fillColor=none;top=0;left=0;bottom=0;right=0;align=left;spacingLeft=6;overflow=hidden;" parent="aNF0O6-SXwINJK2UG5cX-87" vertex="1">
          <mxGeometry x="80" width="280" height="30" as="geometry" />
        </mxCell>
        <mxCell id="aNF0O6-SXwINJK2UG5cX-16" value="Orders" style="shape=table;html=1;whiteSpace=wrap;startSize=30;container=1;collapsible=0;childLayout=tableLayout;fixedRows=1;rowLines=0;fontStyle=1;align=center;fillColor=#999999;" parent="1" vertex="1">
          <mxGeometry x="607" y="161" width="320" height="200" as="geometry" />
        </mxCell>
        <mxCell id="aNF0O6-SXwINJK2UG5cX-17" value="" style="shape=partialRectangle;html=1;whiteSpace=wrap;collapsible=0;dropTarget=0;pointerEvents=0;fillColor=none;top=0;left=0;bottom=1;right=0;points=[[0,0.5],[1,0.5]];portConstraint=eastwest;" parent="aNF0O6-SXwINJK2UG5cX-16" vertex="1">
          <mxGeometry y="30" width="320" height="30" as="geometry" />
        </mxCell>
        <mxCell id="aNF0O6-SXwINJK2UG5cX-18" value="PK" style="shape=partialRectangle;html=1;whiteSpace=wrap;connectable=0;fillColor=none;top=0;left=0;bottom=0;right=0;overflow=hidden;" parent="aNF0O6-SXwINJK2UG5cX-17" vertex="1">
          <mxGeometry width="80" height="30" as="geometry" />
        </mxCell>
        <mxCell id="aNF0O6-SXwINJK2UG5cX-19" value="Orders_ID NOT NULL" style="shape=partialRectangle;html=1;whiteSpace=wrap;connectable=0;fillColor=none;top=0;left=0;bottom=0;right=0;align=left;spacingLeft=6;overflow=hidden;" parent="aNF0O6-SXwINJK2UG5cX-17" vertex="1">
          <mxGeometry x="80" width="240" height="30" as="geometry" />
        </mxCell>
        <mxCell id="aNF0O6-SXwINJK2UG5cX-20" value="" style="shape=partialRectangle;html=1;whiteSpace=wrap;collapsible=0;dropTarget=0;pointerEvents=0;fillColor=none;top=0;left=0;bottom=0;right=0;points=[[0,0.5],[1,0.5]];portConstraint=eastwest;" parent="aNF0O6-SXwINJK2UG5cX-16" vertex="1">
          <mxGeometry y="60" width="320" height="30" as="geometry" />
        </mxCell>
        <mxCell id="aNF0O6-SXwINJK2UG5cX-21" value="FK" style="shape=partialRectangle;html=1;whiteSpace=wrap;connectable=0;fillColor=none;top=0;left=0;bottom=0;right=0;overflow=hidden;" parent="aNF0O6-SXwINJK2UG5cX-20" vertex="1">
          <mxGeometry width="80" height="30" as="geometry" />
        </mxCell>
        <mxCell id="aNF0O6-SXwINJK2UG5cX-22" value="Customer_ID NOT NULL" style="shape=partialRectangle;html=1;whiteSpace=wrap;connectable=0;fillColor=none;top=0;left=0;bottom=0;right=0;align=left;spacingLeft=6;overflow=hidden;" parent="aNF0O6-SXwINJK2UG5cX-20" vertex="1">
          <mxGeometry x="80" width="240" height="30" as="geometry" />
        </mxCell>
        <mxCell id="aNF0O6-SXwINJK2UG5cX-23" value="" style="shape=partialRectangle;html=1;whiteSpace=wrap;collapsible=0;dropTarget=0;pointerEvents=0;fillColor=none;top=0;left=0;bottom=0;right=0;points=[[0,0.5],[1,0.5]];portConstraint=eastwest;" parent="aNF0O6-SXwINJK2UG5cX-16" vertex="1">
          <mxGeometry y="90" width="320" height="30" as="geometry" />
        </mxCell>
        <mxCell id="aNF0O6-SXwINJK2UG5cX-24" value="" style="shape=partialRectangle;html=1;whiteSpace=wrap;connectable=0;fillColor=none;top=0;left=0;bottom=0;right=0;overflow=hidden;" parent="aNF0O6-SXwINJK2UG5cX-23" vertex="1">
          <mxGeometry width="80" height="30" as="geometry" />
        </mxCell>
        <mxCell id="aNF0O6-SXwINJK2UG5cX-25" value="" style="shape=partialRectangle;html=1;whiteSpace=wrap;connectable=0;fillColor=none;top=0;left=0;bottom=0;right=0;align=left;spacingLeft=6;overflow=hidden;" parent="aNF0O6-SXwINJK2UG5cX-23" vertex="1">
          <mxGeometry x="80" width="240" height="30" as="geometry" />
        </mxCell>
        <mxCell id="aNF0O6-SXwINJK2UG5cX-90" style="shape=partialRectangle;html=1;whiteSpace=wrap;collapsible=0;dropTarget=0;pointerEvents=0;fillColor=none;top=0;left=0;bottom=0;right=0;points=[[0,0.5],[1,0.5]];portConstraint=eastwest;" parent="aNF0O6-SXwINJK2UG5cX-16" vertex="1">
          <mxGeometry y="120" width="320" height="30" as="geometry" />
        </mxCell>
        <mxCell id="aNF0O6-SXwINJK2UG5cX-91" style="shape=partialRectangle;html=1;whiteSpace=wrap;connectable=0;fillColor=none;top=0;left=0;bottom=0;right=0;overflow=hidden;" parent="aNF0O6-SXwINJK2UG5cX-90" vertex="1">
          <mxGeometry width="80" height="30" as="geometry" />
        </mxCell>
        <mxCell id="aNF0O6-SXwINJK2UG5cX-92" value="" style="shape=partialRectangle;html=1;whiteSpace=wrap;connectable=0;fillColor=none;top=0;left=0;bottom=0;right=0;align=left;spacingLeft=6;overflow=hidden;" parent="aNF0O6-SXwINJK2UG5cX-90" vertex="1">
          <mxGeometry x="80" width="240" height="30" as="geometry" />
        </mxCell>
        <mxCell id="aNF0O6-SXwINJK2UG5cX-26" value="Items" style="shape=table;html=1;whiteSpace=wrap;startSize=30;container=1;collapsible=0;childLayout=tableLayout;fixedRows=1;rowLines=0;fontStyle=1;align=center;fillColor=#999999;" parent="1" vertex="1">
          <mxGeometry x="167" y="441" width="360" height="200" as="geometry" />
        </mxCell>
        <mxCell id="aNF0O6-SXwINJK2UG5cX-27" value="" style="shape=partialRectangle;html=1;whiteSpace=wrap;collapsible=0;dropTarget=0;pointerEvents=0;fillColor=none;top=0;left=0;bottom=1;right=0;points=[[0,0.5],[1,0.5]];portConstraint=eastwest;" parent="aNF0O6-SXwINJK2UG5cX-26" vertex="1">
          <mxGeometry y="30" width="360" height="30" as="geometry" />
        </mxCell>
        <mxCell id="aNF0O6-SXwINJK2UG5cX-28" value="PK" style="shape=partialRectangle;html=1;whiteSpace=wrap;connectable=0;fillColor=none;top=0;left=0;bottom=0;right=0;overflow=hidden;" parent="aNF0O6-SXwINJK2UG5cX-27" vertex="1">
          <mxGeometry width="80" height="30" as="geometry" />
        </mxCell>
        <mxCell id="aNF0O6-SXwINJK2UG5cX-29" value="Items_ID NOT NULL" style="shape=partialRectangle;html=1;whiteSpace=wrap;connectable=0;fillColor=none;top=0;left=0;bottom=0;right=0;align=left;spacingLeft=6;overflow=hidden;" parent="aNF0O6-SXwINJK2UG5cX-27" vertex="1">
          <mxGeometry x="80" width="280" height="30" as="geometry" />
        </mxCell>
        <mxCell id="aNF0O6-SXwINJK2UG5cX-30" value="" style="shape=partialRectangle;html=1;whiteSpace=wrap;collapsible=0;dropTarget=0;pointerEvents=0;fillColor=none;top=0;left=0;bottom=0;right=0;points=[[0,0.5],[1,0.5]];portConstraint=eastwest;" parent="aNF0O6-SXwINJK2UG5cX-26" vertex="1">
          <mxGeometry y="60" width="360" height="30" as="geometry" />
        </mxCell>
        <mxCell id="aNF0O6-SXwINJK2UG5cX-31" value="" style="shape=partialRectangle;html=1;whiteSpace=wrap;connectable=0;fillColor=none;top=0;left=0;bottom=0;right=0;overflow=hidden;" parent="aNF0O6-SXwINJK2UG5cX-30" vertex="1">
          <mxGeometry width="80" height="30" as="geometry" />
        </mxCell>
        <mxCell id="aNF0O6-SXwINJK2UG5cX-32" value="Item_name VARCHAR (40) DEFAULT&amp;nbsp;NULL" style="shape=partialRectangle;html=1;whiteSpace=wrap;connectable=0;fillColor=none;top=0;left=0;bottom=0;right=0;align=left;spacingLeft=6;overflow=hidden;" parent="aNF0O6-SXwINJK2UG5cX-30" vertex="1">
          <mxGeometry x="80" width="280" height="30" as="geometry" />
        </mxCell>
        <mxCell id="aNF0O6-SXwINJK2UG5cX-33" value="" style="shape=partialRectangle;html=1;whiteSpace=wrap;collapsible=0;dropTarget=0;pointerEvents=0;fillColor=none;top=0;left=0;bottom=0;right=0;points=[[0,0.5],[1,0.5]];portConstraint=eastwest;" parent="aNF0O6-SXwINJK2UG5cX-26" vertex="1">
          <mxGeometry y="90" width="360" height="30" as="geometry" />
        </mxCell>
        <mxCell id="aNF0O6-SXwINJK2UG5cX-34" value="" style="shape=partialRectangle;html=1;whiteSpace=wrap;connectable=0;fillColor=none;top=0;left=0;bottom=0;right=0;overflow=hidden;" parent="aNF0O6-SXwINJK2UG5cX-33" vertex="1">
          <mxGeometry width="80" height="30" as="geometry" />
        </mxCell>
        <mxCell id="aNF0O6-SXwINJK2UG5cX-35" value="Item_value&amp;nbsp;DECIMAL(10,2) DEFAULT NULL" style="shape=partialRectangle;html=1;whiteSpace=wrap;connectable=0;fillColor=none;top=0;left=0;bottom=0;right=0;align=left;spacingLeft=6;overflow=hidden;" parent="aNF0O6-SXwINJK2UG5cX-33" vertex="1">
          <mxGeometry x="80" width="280" height="30" as="geometry" />
        </mxCell>
        <mxCell id="aNF0O6-SXwINJK2UG5cX-37" value="Order_Items" style="shape=table;html=1;whiteSpace=wrap;startSize=30;container=1;collapsible=0;childLayout=tableLayout;fixedRows=1;rowLines=0;fontStyle=1;align=center;fillColor=#999999;" parent="1" vertex="1">
          <mxGeometry x="607" y="441" width="320" height="200" as="geometry" />
        </mxCell>
        <mxCell id="aNF0O6-SXwINJK2UG5cX-38" value="" style="shape=partialRectangle;html=1;whiteSpace=wrap;collapsible=0;dropTarget=0;pointerEvents=0;fillColor=none;top=0;left=0;bottom=1;right=0;points=[[0,0.5],[1,0.5]];portConstraint=eastwest;" parent="aNF0O6-SXwINJK2UG5cX-37" vertex="1">
          <mxGeometry y="30" width="320" height="30" as="geometry" />
        </mxCell>
        <mxCell id="aNF0O6-SXwINJK2UG5cX-39" value="PK" style="shape=partialRectangle;html=1;whiteSpace=wrap;connectable=0;fillColor=none;top=0;left=0;bottom=0;right=0;overflow=hidden;" parent="aNF0O6-SXwINJK2UG5cX-38" vertex="1">
          <mxGeometry width="80" height="30" as="geometry" />
        </mxCell>
        <mxCell id="aNF0O6-SXwINJK2UG5cX-40" value="Order_Items_ID NOT NULL" style="shape=partialRectangle;html=1;whiteSpace=wrap;connectable=0;fillColor=none;top=0;left=0;bottom=0;right=0;align=left;spacingLeft=6;overflow=hidden;" parent="aNF0O6-SXwINJK2UG5cX-38" vertex="1">
          <mxGeometry x="80" width="240" height="30" as="geometry" />
        </mxCell>
        <mxCell id="aNF0O6-SXwINJK2UG5cX-41" value="" style="shape=partialRectangle;html=1;whiteSpace=wrap;collapsible=0;dropTarget=0;pointerEvents=0;fillColor=none;top=0;left=0;bottom=0;right=0;points=[[0,0.5],[1,0.5]];portConstraint=eastwest;" parent="aNF0O6-SXwINJK2UG5cX-37" vertex="1">
          <mxGeometry y="60" width="320" height="30" as="geometry" />
        </mxCell>
        <mxCell id="aNF0O6-SXwINJK2UG5cX-42" value="FK" style="shape=partialRectangle;html=1;whiteSpace=wrap;connectable=0;fillColor=none;top=0;left=0;bottom=0;right=0;overflow=hidden;" parent="aNF0O6-SXwINJK2UG5cX-41" vertex="1">
          <mxGeometry width="80" height="30" as="geometry" />
        </mxCell>
        <mxCell id="aNF0O6-SXwINJK2UG5cX-43" value="Orders_ID NOT NULL" style="shape=partialRectangle;html=1;whiteSpace=wrap;connectable=0;fillColor=none;top=0;left=0;bottom=0;right=0;align=left;spacingLeft=6;overflow=hidden;" parent="aNF0O6-SXwINJK2UG5cX-41" vertex="1">
          <mxGeometry x="80" width="240" height="30" as="geometry" />
        </mxCell>
        <mxCell id="aNF0O6-SXwINJK2UG5cX-44" value="" style="shape=partialRectangle;html=1;whiteSpace=wrap;collapsible=0;dropTarget=0;pointerEvents=0;fillColor=none;top=0;left=0;bottom=0;right=0;points=[[0,0.5],[1,0.5]];portConstraint=eastwest;" parent="aNF0O6-SXwINJK2UG5cX-37" vertex="1">
          <mxGeometry y="90" width="320" height="30" as="geometry" />
        </mxCell>
        <mxCell id="aNF0O6-SXwINJK2UG5cX-45" value="FK" style="shape=partialRectangle;html=1;whiteSpace=wrap;connectable=0;fillColor=none;top=0;left=0;bottom=0;right=0;overflow=hidden;" parent="aNF0O6-SXwINJK2UG5cX-44" vertex="1">
          <mxGeometry width="80" height="30" as="geometry" />
        </mxCell>
        <mxCell id="aNF0O6-SXwINJK2UG5cX-46" value="Items_ID NOT NULL" style="shape=partialRectangle;html=1;whiteSpace=wrap;connectable=0;fillColor=none;top=0;left=0;bottom=0;right=0;align=left;spacingLeft=6;overflow=hidden;" parent="aNF0O6-SXwINJK2UG5cX-44" vertex="1">
          <mxGeometry x="80" width="240" height="30" as="geometry" />
        </mxCell>
        <mxCell id="aNF0O6-SXwINJK2UG5cX-93" style="shape=partialRectangle;html=1;whiteSpace=wrap;collapsible=0;dropTarget=0;pointerEvents=0;fillColor=none;top=0;left=0;bottom=0;right=0;points=[[0,0.5],[1,0.5]];portConstraint=eastwest;" parent="aNF0O6-SXwINJK2UG5cX-37" vertex="1">
          <mxGeometry y="120" width="320" height="30" as="geometry" />
        </mxCell>
        <mxCell id="aNF0O6-SXwINJK2UG5cX-94" style="shape=partialRectangle;html=1;whiteSpace=wrap;connectable=0;fillColor=none;top=0;left=0;bottom=0;right=0;overflow=hidden;" parent="aNF0O6-SXwINJK2UG5cX-93" vertex="1">
          <mxGeometry width="80" height="30" as="geometry" />
        </mxCell>
        <mxCell id="aNF0O6-SXwINJK2UG5cX-95" value="Quantity INT DEFAULT NULL" style="shape=partialRectangle;html=1;whiteSpace=wrap;connectable=0;fillColor=none;top=0;left=0;bottom=0;right=0;align=left;spacingLeft=6;overflow=hidden;" parent="aNF0O6-SXwINJK2UG5cX-93" vertex="1">
          <mxGeometry x="80" width="240" height="30" as="geometry" />
        </mxCell>
        <mxCell id="lHnBOQ9jAG8OisB1qzgP-1" value="" style="edgeStyle=entityRelationEdgeStyle;fontSize=12;html=1;endArrow=ERzeroToMany;startArrow=ERmandOne;entryX=0;entryY=0.5;entryDx=0;entryDy=0;exitX=1;exitY=0.5;exitDx=0;exitDy=0;" edge="1" parent="1" source="aNF0O6-SXwINJK2UG5cX-8" target="aNF0O6-SXwINJK2UG5cX-23">
          <mxGeometry width="100" height="100" relative="1" as="geometry">
            <mxPoint x="327" y="821" as="sourcePoint" />
            <mxPoint x="427" y="721" as="targetPoint" />
          </mxGeometry>
        </mxCell>
        <mxCell id="lHnBOQ9jAG8OisB1qzgP-2" value="" style="edgeStyle=entityRelationEdgeStyle;fontSize=12;html=1;endArrow=ERzeroToMany;startArrow=ERmandOne;entryX=1;entryY=0.5;entryDx=0;entryDy=0;exitX=1;exitY=0.5;exitDx=0;exitDy=0;" edge="1" parent="1" source="aNF0O6-SXwINJK2UG5cX-23" target="aNF0O6-SXwINJK2UG5cX-93">
          <mxGeometry width="100" height="100" relative="1" as="geometry">
            <mxPoint x="997" y="301" as="sourcePoint" />
            <mxPoint x="1077" y="301" as="targetPoint" />
          </mxGeometry>
        </mxCell>
        <mxCell id="lHnBOQ9jAG8OisB1qzgP-3" value="" style="edgeStyle=entityRelationEdgeStyle;fontSize=12;html=1;endArrow=ERzeroToMany;startArrow=ERmandOne;entryX=0;entryY=0.5;entryDx=0;entryDy=0;exitX=1;exitY=0.5;exitDx=0;exitDy=0;" edge="1" parent="1">
          <mxGeometry width="100" height="100" relative="1" as="geometry">
            <mxPoint x="527" y="541" as="sourcePoint" />
            <mxPoint x="607" y="541" as="targetPoint" />
          </mxGeometry>
        </mxCell>
      </root>
    </mxGraphModel>
  </diagram>
</mxfile>
